<?xml version="1.0" encoding="UTF-8" standalone="no"?>
<svg
   role="img"
   viewBox="0 0 24 24"
   version="1.1"
   id="svg6"
   sodipodi:docname="gitlab.svg"
   inkscape:version="1.2.2 (b0a8486541, 2022-12-01)"
   xmlns:inkscape="http://www.inkscape.org/namespaces/inkscape"
   xmlns:sodipodi="http://sodipodi.sourceforge.net/DTD/sodipodi-0.dtd"
   xmlns="http://www.w3.org/2000/svg"
   xmlns:svg="http://www.w3.org/2000/svg">
  <defs
     id="defs10" />
  <sodipodi:namedview
     id="namedview8"
     pagecolor="#505050"
     bordercolor="#ffffff"
     borderopacity="1"
     inkscape:showpageshadow="0"
     inkscape:pageopacity="0"
     inkscape:pagecheckerboard="1"
     inkscape:deskcolor="#505050"
     showgrid="false"
     inkscape:zoom="30.958333"
     inkscape:cx="11.983849"
     inkscape:cy="12"
     inkscape:window-width="2560"
     inkscape:window-height="1368"
     inkscape:window-x="0"
     inkscape:window-y="0"
     inkscape:window-maximized="1"
     inkscape:current-layer="svg6" />
  <title
     id="title2">GitLab</title>
  <path
     d="m23.6004 9.5927-.0337-.0862L20.3.9814a.851.851 0 0 0-.3362-.405.8748.8748 0 0 0-.9997.0539.8748.8748 0 0 0-.29.4399l-2.2055 6.748H7.5375l-2.2057-6.748a.8573.8573 0 0 0-.29-.4412.8748.8748 0 0 0-.9997-.0537.8585.8585 0 0 0-.3362.4049L.4332 9.5015l-.0325.0862a6.0657 6.0657 0 0 0 2.0119 7.0105l.0113.0087.03.0213 4.976 3.7264 2.462 1.8633 1.4995 1.1321a1.0085 1.0085 0 0 0 1.2197 0l1.4995-1.1321 2.4619-1.8633 5.006-3.7489.0125-.01a6.0682 6.0682 0 0 0 2.0094-7.003z"
     id="path4"
     style="fill:#ffffff" />
</svg>
