<?xml version="1.0" encoding="UTF-8" standalone="no"?>
<svg
   viewBox="0 0 24 24"
   version="1.1"
   id="svg4"
   sodipodi:docname="attachment.svg"
   inkscape:version="1.2.2 (b0a8486541, 2022-12-01)"
   xmlns:inkscape="http://www.inkscape.org/namespaces/inkscape"
   xmlns:sodipodi="http://sodipodi.sourceforge.net/DTD/sodipodi-0.dtd"
   xmlns="http://www.w3.org/2000/svg"
   xmlns:svg="http://www.w3.org/2000/svg">
  <defs
     id="defs8" />
  <sodipodi:namedview
     id="namedview6"
     pagecolor="#505050"
     bordercolor="#ffffff"
     borderopacity="1"
     inkscape:showpageshadow="0"
     inkscape:pageopacity="0"
     inkscape:pagecheckerboard="1"
     inkscape:deskcolor="#505050"
     showgrid="false"
     inkscape:zoom="30.958333"
     inkscape:cx="11.983849"
     inkscape:cy="12"
     inkscape:window-width="2560"
     inkscape:window-height="1368"
     inkscape:window-x="0"
     inkscape:window-y="0"
     inkscape:window-maximized="1"
     inkscape:current-layer="svg4" />
  <path
     d="M7.5,18A5.5,5.5 0 0,1 2,12.5A5.5,5.5 0 0,1 7.5,7H18A4,4 0 0,1 22,11A4,4 0 0,1 18,15H9.5A2.5,2.5 0 0,1 7,12.5A2.5,2.5 0 0,1 9.5,10H17V11.5H9.5A1,1 0 0,0 8.5,12.5A1,1 0 0,0 9.5,13.5H18A2.5,2.5 0 0,0 20.5,11A2.5,2.5 0 0,0 18,8.5H7.5A4,4 0 0,0 3.5,12.5A4,4 0 0,0 7.5,16.5H17V18H7.5Z"
     id="path2"
     style="fill:#000000" />
</svg>
